<?xml version="1.0" encoding="UTF-8" standalone="no"?>
<!-- Created with Inkscape (http://www.inkscape.org/) -->

<svg
   width="256"
   height="256"
   viewBox="0 0 67.733334 67.733334"
   version="1.1"
   id="svg1"
   sodipodi:docname="cv.svg"
   inkscape:version="1.4.1 (93de688d07, 2025-03-30)"
   inkscape:export-xdpi="96"
   inkscape:export-ydpi="96"
   xmlns:inkscape="http://www.inkscape.org/namespaces/inkscape"
   xmlns:sodipodi="http://sodipodi.sourceforge.net/DTD/sodipodi-0.dtd"
   xmlns="http://www.w3.org/2000/svg"
   xmlns:svg="http://www.w3.org/2000/svg">
  <sodipodi:namedview
     id="namedview1"
     pagecolor="#ffffff"
     bordercolor="#000000"
     borderopacity="0.25"
     inkscape:showpageshadow="2"
     inkscape:pageopacity="0.0"
     inkscape:pagecheckerboard="0"
     inkscape:deskcolor="#d1d1d1"
     inkscape:zoom="1.9195335"
     inkscape:cx="71.631986"
     inkscape:cy="174.52157"
     inkscape:window-width="1908"
     inkscape:window-height="1033"
     inkscape:window-x="0"
     inkscape:window-y="0"
     inkscape:window-maximized="1"
     inkscape:current-layer="layer1" />
  <defs
     id="defs1" />
  <g
     id="layer1">
    <!--!Font Awesome Free 6.7.2 by @fontawesome - https://fontawesome.com License - https://fontawesome.com/license/free Copyright 2025 Fonticons, Inc.-->
    <!--!Font Awesome Free 6.7.2 by @fontawesome - https://fontawesome.com License - https://fontawesome.com/license/free Copyright 2025 Fonticons, Inc.-->
    <g
       id="g29"
       transform="matrix(1.4061818,0,0,1.4061818,-13.756749,-12.279174)">
      <g
         id="g2"
         transform="matrix(0.50285587,-0.50285587,0.50285587,0.50285587,-9.7723261,34.035755)"
         style="fill:#8839ef;fill-opacity:1">
        <rect
           style="fill:#8839ef;fill-opacity:1;stroke:none;stroke-width:1.49671;stroke-linecap:round;stroke-linejoin:round"
           id="rect1"
           width="33.866669"
           height="8.4666672"
           x="13.229167"
           y="39.6875"
           ry="3.1752014" />
        <rect
           style="fill:#8839ef;fill-opacity:1;stroke:none;stroke-width:1.49671;stroke-linecap:round;stroke-linejoin:round"
           id="rect2"
           width="33.866669"
           height="8.4666672"
           x="-73.554169"
           y="38.629166"
           ry="3.1752014"
           transform="rotate(-90)" />
      </g>
      <path
         d="m 33.867184,14.968079 c -8.729912,0 -15.875,7.145086 -15.875,15.874999 0,4.231112 1.678538,8.090002 4.402315,10.943519 l 4.46381,-4.463811 c -1.565437,-1.694372 -2.516642,-3.966558 -2.516642,-6.479708 0,-5.298124 4.227394,-9.525516 9.525517,-9.525516 5.298124,0 9.525517,4.227392 9.525517,9.525516 0,2.513459 -0.95138,4.786304 -2.517159,6.480742 l 4.46381,4.46381 c 2.724202,-2.853589 4.402832,-6.713065 4.402832,-10.944552 0,-8.729913 -7.145087,-15.874999 -15.875,-15.874999 z"
         style="baseline-shift:baseline;display:inline;overflow:visible;vector-effect:none;fill:#e64553;fill-opacity:1;enable-background:accumulate;stop-color:#000000"
         id="path21"
         sodipodi:nodetypes="ssccsssccss" />
    </g>
  </g>
</svg>
